<svg width="1440" height="1024" viewBox="0 0 1440 1024" fill="none" xmlns="http://www.w3.org/2000/svg">
<g clip-path="url(#clip0)">
<rect width="1440" height="1024" fill="#BFDEE8"/>
<path d="M860.287 940.846C842.75 943.286 784.342 965.834 703 1026.5L1440 1024V564.298V512L1398.52 531.35L1361.09 564.298L1332.76 614.505L1297.35 649.544H1242.72L1192.13 688.245L1162.28 738.974L1117.26 760.417L1070.22 775.583L1044.34 813.589L978.152 860.18L962.9 890.239L937.177 917.312H895.697L860.287 940.846Z" fill="url(#paint0_linear)" stroke="#BFDEE8" stroke-width="2"/>
<path d="M820.659 984.463L767 1023H1440V565L1404.9 605.019L1358.26 627.252L1348 660.5L1282.5 668.701L1239 693L1227.5 743L1183.5 766L1131 787L1093 831.5L1076.5 878.5L1000.5 912.5L952 942L913.937 984.463H820.659Z" fill="#6E8A93" stroke="#75949E" stroke-width="2"/>
<path d="M1059.99 778.654L1057.3 757.82L1038.79 742.168L1016.89 732.581L973.877 730.03L941.355 742.168L928 766.5L906.928 792.03L907.425 834.021L931.41 860L941.355 878.447L973.633 893.291L1004.11 895.34L1024.75 878.736L1052.82 867.004L1058.59 845.576L1072.91 826.452L1071.15 798.894L1059.99 778.654Z" fill="url(#paint1_linear)"/>
<path fill-rule="evenodd" clip-rule="evenodd" d="M855.652 863.474C858.035 873.83 914.485 896.871 914.918 897.691C915.11 898.055 911.568 911.025 904.291 936.599L909.072 937.596C921.946 909.733 927.751 894.515 926.487 891.944C924.676 888.262 909.362 877.56 880.543 859.837L855.652 863.474Z" fill="#B28B67"/>
<path fill-rule="evenodd" clip-rule="evenodd" d="M904.668 931.014L912.448 932.469C925.507 913.328 929.53 898.552 927.352 891.66C925.9 887.066 910.635 876.378 881.557 859.597L855.126 863.58C859.684 887.708 910.409 898.465 911.207 899.402C912.005 900.339 907.211 911.418 904.668 931.014Z" fill="#3E545B"/>
<path fill-rule="evenodd" clip-rule="evenodd" d="M902.5 936.025C901.732 937.196 901.279 938.095 901.142 938.722C900.976 939.485 900.865 940.623 900.811 942.136C901.734 942.309 910.025 943.859 925.685 946.787C926.778 944.858 926.646 943.682 925.289 943.258C923.932 942.834 922.808 942.47 921.915 942.166L911.432 935.061C911.23 934.924 910.949 934.971 910.803 935.166C910.801 935.169 910.798 935.173 910.796 935.176L909.676 936.766C908.261 937.102 907.15 937.195 906.344 937.044C905.689 936.922 904.84 936.499 903.797 935.776L903.797 935.776C903.397 935.498 902.832 935.587 902.537 935.973C902.524 935.99 902.512 936.007 902.5 936.025Z" fill="#E4E4E4"/>
<path fill-rule="evenodd" clip-rule="evenodd" d="M861.608 862.577L846.501 918.943L830.558 967.073L835.91 966.267L879.747 859.844L861.608 862.577Z" fill="#997659"/>
<path fill-rule="evenodd" clip-rule="evenodd" d="M829.927 965.057C829.62 966.404 829.514 967.393 829.609 968.024C829.725 968.792 830.027 969.892 830.517 971.324C831.45 971.184 839.835 969.92 855.67 967.534C856.013 965.373 855.468 964.316 854.035 964.364C852.602 964.411 851.41 964.439 850.458 964.447L838.018 961.233C837.778 961.171 837.529 961.307 837.461 961.537C837.46 961.541 837.459 961.545 837.458 961.549L836.969 963.403C835.752 964.18 834.737 964.63 833.922 964.753C833.259 964.852 832.306 964.735 831.063 964.4L831.063 964.4C830.585 964.272 830.084 964.539 829.943 964.997C829.937 965.017 829.932 965.037 829.927 965.057Z" fill="#E4E4E4"/>
<path fill-rule="evenodd" clip-rule="evenodd" d="M831.207 957.476L843.418 957.813C850.667 943.524 881.169 884.818 881.676 859.553L855.206 863.542C843.802 883.469 837.994 943.039 831.207 957.476Z" fill="#546970"/>
<path fill-rule="evenodd" clip-rule="evenodd" d="M877.594 786.963C875.25 783.923 873.763 780.285 874.297 776.348C875.838 765.002 892.006 768.537 894.819 774.49C897.633 780.442 896.337 795.01 892.168 795.779C890.505 796.086 887.082 794.862 883.664 792.56L884.927 808.015L871.774 807.187L877.594 786.963Z" fill="#B28B67"/>
<path fill-rule="evenodd" clip-rule="evenodd" d="M890.293 767.914C888.529 767.269 885.931 766.924 884.826 766.977C885.542 765.563 885.892 763.959 885.789 762.369C885.689 760.825 885.067 759.476 884.501 758.067C884.241 757.418 883.94 756.77 883.463 756.256C882.977 755.733 882.343 755.367 881.666 755.169C880.974 754.967 880.239 754.934 879.526 755.033C879.211 755.077 878.923 755.198 878.614 755.256C878.296 755.315 878.156 755.115 877.942 754.91C877.424 754.415 876.637 754.137 875.951 754.013C875.181 753.873 874.369 753.936 873.613 754.137C872.878 754.333 872.161 754.681 871.605 755.219C871.357 755.458 871.128 755.734 870.971 756.045C870.907 756.173 870.893 756.25 870.755 756.289C870.628 756.326 870.482 756.318 870.351 756.352C869.084 756.683 867.963 757.548 867.31 758.709C866.929 759.386 866.691 760.606 866.648 761.987C866.605 763.368 867.66 767.045 868.775 768.432C869.77 769.67 871.293 770.541 872.788 770.975C871.711 772.03 870.953 773.385 870.368 774.775C869.733 776.285 869.299 777.867 869.073 779.494C868.858 781.039 868.744 782.681 869.023 784.224C869.284 785.667 869.96 786.88 871.164 787.698C871.716 788.073 872.316 788.366 872.922 788.638C873.518 788.905 874.117 789.167 874.749 789.336C875.945 789.655 877.344 789.701 878.336 788.823C878.694 788.506 879.09 788.105 879.362 787.708C879.459 787.565 879.519 787.471 879.421 787.32C879.303 787.138 879.104 786.992 878.947 786.845C878.055 786.011 877.538 784.94 877.469 783.701C877.399 782.444 877.845 780.856 879.127 780.39C880.71 779.815 882.358 780.693 883.682 781.498C884.39 779.539 885.698 777.817 887.629 777.02C889.765 776.137 892.151 776.168 894.335 775.433C894.904 775.242 895.486 775.02 895.924 774.585C896.107 774.403 896.323 774.165 896.407 773.914C896.517 773.585 896.313 773.29 896.157 773.018C895.334 771.576 892.056 768.56 890.293 767.914Z" fill="#191847"/>
<path fill-rule="evenodd" clip-rule="evenodd" d="M893.691 819.297L911.41 811.13C914.501 807.927 917.49 805.485 920.378 803.805C921.243 803.514 922.724 803.412 921.161 805.788C919.597 808.163 918.056 810.733 918.694 811.552C919.331 812.372 921.154 811.44 921.887 812.776C922.375 813.667 919.299 814.772 912.658 816.092L899.42 826.662L893.691 819.297ZM919.646 829.396L927.43 825.796C928.795 821.811 930.206 819.862 931.663 819.951C932.822 819.507 930.473 824.494 932.627 824.214C934.78 823.935 940.26 820.411 941.088 821.279C942.314 822.562 940.854 826.095 939.328 827.789C936.475 830.956 934.242 831.94 928.826 833.034C925.995 833.606 922.877 834.952 919.471 837.074L919.646 829.396Z" fill="#997659"/>
<path fill-rule="evenodd" clip-rule="evenodd" d="M885.591 816.533C891.541 816.935 899.57 816.274 908.459 811.451L911.188 819.281C904.889 824.74 896.303 828.957 889.145 828.189C883.505 827.583 881.163 820.37 885.591 816.533Z" fill="#56747D"/>
<path fill-rule="evenodd" clip-rule="evenodd" d="M892.644 829.3C898.83 831.403 909.562 830.336 924.842 826.1C927.917 834.179 929.184 839.865 928.646 843.161C915.368 848.963 904.207 851.139 895.192 850.633C895.05 856.112 893.993 861.252 891.437 865.825C886.184 875.225 860.608 864.132 851.631 865.216C847.537 846.418 858.823 839.795 859.754 828.045C860.772 815.178 872.438 796.164 873.926 796.281L887.494 797.345C887.472 807.231 890.391 818.357 892.644 829.3Z" fill="#75949E"/>
<path d="M1101.5 798L1099 792.5L1108 794.5L1101.5 798Z" fill="#58747D"/>
<path d="M1104 751.5H1109.5V754L1104 758V751.5Z" fill="#58747D"/>
<path d="M1101.5 798L1099 792.5L1108 794.5L1101.5 798Z" stroke="black" stroke-width="0.1"/>
<path d="M1104 751.5H1109.5V754L1104 758V751.5Z" stroke="black" stroke-width="0.1"/>
<path d="M1129.64 758.003L1129.64 765L1140.5 765L1129.64 758.003Z" fill="#58747D"/>
<path d="M950.741 920.769L945.239 918.137L946.5 915.5L954.02 913.914L950.741 920.769Z" fill="#58747D"/>
<path d="M1129.64 758.003L1129.64 765L1140.5 765L1129.64 758.003Z" stroke="black" stroke-width="0.1"/>
<path d="M950.741 920.769L945.239 918.137L946.5 915.5L954.02 913.914L950.741 920.769Z" stroke="black" stroke-width="0.1"/>
<path d="M817.261 965.671L809.486 960.818L814.11 955.945L817.261 965.671Z" fill="#58747D"/>
<path d="M944 897L947.25 891L957 893.667V899.667L947.25 903L944 897Z" fill="#577580" stroke="black" stroke-width="0.1"/>
<path d="M246 94.9562L246 82.3835C246 78.7521 244.031 75.4061 240.857 73.6423L234.053 69.8615C231.775 68.5957 229.092 68.2692 226.577 68.9517L213.5 72.5L208.569 60.8458C208.192 59.9533 207.686 59.1205 207.069 58.3734L200.02 49.8396C199.021 48.6302 197.751 47.6728 196.313 47.0447L185 42.1021L171.596 38.1223C170.215 37.7123 168.762 37.6055 167.336 37.8092L157.685 39.1879C156.246 39.3935 154.868 39.9105 153.649 40.7029L145.5 46L136.5 53.5L123.448 41.7114C121.858 40.2752 119.849 39.3877 117.716 39.1797L102.319 37.6775C101.116 37.5601 99.9021 37.6618 98.7354 37.9777L86.6883 41.239C84.6178 41.7995 82.7824 43.0109 81.4531 44.6944L75.7472 51.9205C74.924 52.963 74.3167 54.1592 73.9609 55.439L70.5 67.8873L66.4982 63.0924C64.5983 60.8159 61.786 59.5 58.8208 59.5L52.7593 59.5C50.6413 59.5 48.5779 60.1725 46.8667 61.4205L42.1074 64.8916C39.5263 66.7741 37.9999 69.7765 37.9999 72.9711L37.9999 79.7426C37.9999 82.4627 36.8918 85.0655 34.931 86.9509L28.0689 93.5491C26.1081 95.4345 25 98.0373 25 100.757L25 107C25 112.523 29.4771 117 35 117L219.705 117C221.845 117 223.929 116.314 225.649 115.042L241.944 102.998C244.495 101.112 246 98.1284 246 94.9562Z" fill="url(#paint2_linear)"/>
<path d="M580.05 83.8102L579.941 75.6493C579.898 72.4101 578.288 69.3924 575.622 67.5523L574.194 66.5664C571.65 64.8105 568.436 64.33 565.49 65.2646L559.652 67.1166L556.536 58.3872C556.25 57.5862 555.863 56.8249 555.384 56.1217L551.444 50.3343C550.554 49.0264 549.366 47.9484 547.978 47.1889L541.647 43.7252L534.459 41.009C532.832 40.3941 531.073 40.2143 529.355 40.4873L525.876 41.0403C524.189 41.3083 522.599 42.0038 521.258 43.0605L517.16 46.2879L511.647 51.897L504.333 43.8104C502.75 42.06 500.598 40.926 498.259 40.6091L491.354 39.6734C489.891 39.4751 488.402 39.6034 486.994 40.0488L482.081 41.6034C479.847 42.3105 477.931 43.7802 476.67 45.7557L474.12 49.7495C473.478 50.7547 473.021 51.8666 472.771 53.0327L470.811 62.1636L469.188 59.8022C467.426 57.2398 464.534 55.6881 461.424 55.6374C459.02 55.5982 456.689 56.4615 454.89 58.0569L454.056 58.7972C451.881 60.7259 450.653 63.5053 450.692 66.4117L450.744 70.3356C450.776 72.7503 449.934 75.0951 448.372 76.9369L445.271 80.5928C443.709 82.4346 442.866 84.7794 442.898 87.1941L442.927 89.3222C442.999 94.7293 447.356 99.0996 452.763 99.1877L562.073 100.969C564.598 101.011 567.045 100.095 568.922 98.4066L576.737 91.3792C578.881 89.4516 580.088 86.6927 580.05 83.8102Z" fill="url(#paint3_linear)"/>
<path d="M261.089 121.648L253.931 113.336L250.364 110.062C248.83 108.654 246.895 107.759 244.829 107.504L240.948 107.024C239.359 106.828 237.746 107.016 236.245 107.572L228.626 110.396C227.87 110.677 227.15 111.048 226.483 111.501L216.905 118.007L210.129 113.637C209.042 112.936 207.829 112.452 206.558 112.213L195.886 110.206C194.339 109.915 192.745 109.994 191.234 110.435L180.547 113.556C179.191 113.951 177.935 114.63 176.86 115.546L168.514 122.664C168.095 123.022 167.706 123.413 167.351 123.835L162.093 130.085L158.057 125.059C156.166 122.703 153.31 121.328 150.289 121.319L144.441 121.302C142.25 121.296 140.118 122.009 138.372 123.332L133.561 126.977C131.058 128.874 129.591 131.836 129.6 134.976L129.622 142.605C129.629 145.266 128.576 147.82 126.695 149.702L119.606 156.795C117.725 158.677 116.672 161.231 116.68 163.892L116.7 171.133C116.716 176.633 121.171 181.088 126.671 181.105L311.358 181.652C313.571 181.659 315.723 180.931 317.478 179.583L333.802 167.047C336.275 165.148 337.72 162.205 337.712 159.087L337.672 145.311C337.662 141.757 335.766 138.474 332.692 136.69L325.776 132.677C323.443 131.323 320.662 130.97 318.064 131.696L305.137 135.311L300.947 124.768C300.495 123.632 299.839 122.588 299.011 121.688L294.858 117.178C293.258 115.44 291.095 114.325 288.751 114.03L282.329 113.221C281.388 113.102 280.434 113.118 279.497 113.268L272.817 114.339C271.228 114.593 269.723 115.228 268.432 116.188L261.089 121.648Z" fill="url(#paint4_linear)"/>
<path d="M411.245 80.2581L407.455 72.9135C407.221 72.46 406.953 72.025 406.652 71.6124L403.195 66.8654C401.328 64.3017 398.356 62.7756 395.184 62.7525L391.597 62.7263C390.1 62.7154 388.62 63.0407 387.266 63.6781L382.679 65.837C381.681 66.3066 380.768 66.938 379.976 67.7056L373.498 73.9865L367.965 67.9037C367.086 66.9376 366.026 66.1529 364.846 65.5941L351.835 59.4357C349.626 58.3897 347.109 58.1895 344.762 58.8728L336.315 61.3316C334.161 61.9586 332.28 63.292 330.975 65.1173L326.003 72.0726C325.266 73.1031 324.732 74.2643 324.428 75.4943L321.348 87.9865L317.907 83.4645C316.031 81 313.119 79.5436 310.022 79.5211L305.758 79.4901C303.464 79.4733 301.234 80.246 299.442 81.6783L295.607 84.7435C293.214 86.6556 291.83 89.5586 291.851 92.6212L291.898 99.8598C291.915 102.437 290.936 104.922 289.166 106.795L282.955 113.365C281.184 115.239 280.205 117.723 280.222 120.301L280.266 126.913C280.302 132.381 284.725 136.807 290.193 136.846L456.653 138.058C458.969 138.075 461.22 137.287 463.02 135.829L477.285 124.272C479.647 122.359 481.01 119.475 480.99 116.436L480.903 103.297C480.88 99.8502 479.083 96.6577 476.148 94.8496L470.508 91.3748C468.1 89.8915 465.176 89.4971 462.462 90.2892L451.31 93.543L447.455 82.6961C446.946 81.2617 446.115 79.9627 445.028 78.8979L440.233 74.2056C439.063 73.0597 437.628 72.219 436.057 71.7574L430.624 70.1617C428.894 69.6539 427.06 69.6228 425.315 70.0716L420.305 71.36C417.946 71.9668 415.889 73.4141 414.521 75.43L411.245 80.2581Z" fill="url(#paint5_linear)"/>
</g>
<defs>
<linearGradient id="paint0_linear" x1="1073" y1="512" x2="1073" y2="1024" gradientUnits="userSpaceOnUse">
<stop stop-color="#7FA4D0" stop-opacity="0"/>
<stop offset="0.0001" stop-color="#81A8D2" stop-opacity="0.25"/>
<stop offset="1" stop-color="#72B2B6"/>
</linearGradient>
<linearGradient id="paint1_linear" x1="1011" y1="734" x2="956" y2="865.5" gradientUnits="userSpaceOnUse">
<stop stop-color="#63828C"/>
<stop offset="0.739583" stop-color="#415860"/>
</linearGradient>
<linearGradient id="paint2_linear" x1="133.373" y1="52.8445" x2="132.268" y2="162.238" gradientUnits="userSpaceOnUse">
<stop stop-color="#E5F2F7"/>
<stop offset="1" stop-color="#B6D8DA" stop-opacity="0.65"/>
</linearGradient>
<linearGradient id="paint3_linear" x1="509.699" y1="51.3671" x2="507.319" y2="134.417" gradientUnits="userSpaceOnUse">
<stop stop-color="#E5F2F7"/>
<stop offset="1" stop-color="#B6D8DA" stop-opacity="0.65"/>
</linearGradient>
<linearGradient id="paint4_linear" x1="225.588" y1="123.625" x2="225.291" y2="223.556" gradientUnits="userSpaceOnUse">
<stop stop-color="#E5F2F7"/>
<stop offset="1" stop-color="#B6D8DA" stop-opacity="0.65"/>
</linearGradient>
<linearGradient id="paint5_linear" x1="378.376" y1="73.3669" x2="376.365" y2="182.669" gradientUnits="userSpaceOnUse">
<stop stop-color="#E5F2F7"/>
<stop offset="1" stop-color="#B6D8DA"/>
</linearGradient>
<clipPath id="clip0">
<rect width="1440" height="1024" fill="white"/>
</clipPath>
</defs>
</svg>
